<?xml version="1.0" encoding="UTF-8"?>
<!DOCTYPE svg PUBLIC "-//W3C//DTD SVG 1.1//EN" "http://www.w3.org/Graphics/SVG/1.1/DTD/svg11.dtd">
<svg xmlns="http://www.w3.org/2000/svg" version="1.1" width="235px" height="87px" style="shape-rendering:geometricPrecision; text-rendering:geometricPrecision; image-rendering:optimizeQuality; fill-rule:evenodd; clip-rule:evenodd" xmlns:xlink="http://www.w3.org/1999/xlink">
<g><path style="opacity:0.212" fill="#f1f5ec" d="M 51.5,27.5 C 52.1408,28.4822 52.8075,29.4822 53.5,30.5C 51.1457,32.8543 48.8123,35.1877 46.5,37.5C 47.0283,36.1526 47.195,34.8193 47,33.5C 45.6288,35.0414 44.1288,36.3747 42.5,37.5C 40.505,35.3605 38.005,34.0271 35,33.5C 35.1078,29.8432 35.1078,26.1765 35,22.5C 31.6667,19.5 28.3333,16.5 25,13.5C 24.5439,12.2559 25.0439,11.4226 26.5,11C 25.1537,9.35773 25.4871,8.69106 27.5,9C 31.1937,12.6937 34.8604,16.3604 38.5,20C 42.5003,19.3198 46.5003,19.6531 50.5,21C 52.6082,23.0164 52.9416,25.1831 51.5,27.5 Z M 37.5,22.5 C 38.552,22.3505 39.552,22.5172 40.5,23C 38.1871,30.462 37.1871,30.2954 37.5,22.5 Z"/></g>
<g><path style="opacity:0.992" fill="#dfddab" d="M 42.5,20.5 C 43.3764,20.3691 44.0431,20.7025 44.5,21.5C 41.7087,25.5888 41.0421,25.2554 42.5,20.5 Z"/></g>
<g><path style="opacity:1" fill="#e9dda4" d="M 51.5,27.5 C 49.7085,27.366 48.0418,27.6993 46.5,28.5C 46.2252,26.1582 45.3919,26.1582 44,28.5C 43.5357,27.9056 43.369,27.2389 43.5,26.5C 47.389,20.818 50.0557,21.1513 51.5,27.5 Z"/></g>
<g><path style="opacity:1" fill="#e6d187" d="M 43.5,26.5 C 43.369,27.2389 43.5357,27.9056 44,28.5C 45.3919,26.1582 46.2252,26.1582 46.5,28.5C 44.9319,35.133 41.5985,36.133 36.5,31.5C 39.1239,30.2047 41.4573,28.538 43.5,26.5 Z"/></g>
<g><path style="opacity:0.692" fill="#fefefe" d="M 126.5,35.5 C 127.5,35.5 128.5,35.5 129.5,35.5C 129.5,40.5 129.5,45.5 129.5,50.5C 132.119,50.2317 134.619,50.565 137,51.5C 138.667,46.5 140.333,41.5 142,36.5C 143.011,35.6634 144.178,35.33 145.5,35.5C 146.758,40.9422 148.425,46.2755 150.5,51.5C 150,51.8333 149.5,52.1667 149,52.5C 147.527,50.9537 145.694,49.9537 143.5,49.5C 141.714,49.6962 140.381,50.5295 139.5,52C 135.179,52.499 130.846,52.6657 126.5,52.5C 126.5,46.8333 126.5,41.1667 126.5,35.5 Z M 142.5,42.5 C 144.026,43.1047 145.026,44.2714 145.5,46C 144.167,46.6667 142.833,46.6667 141.5,46C 142.337,44.9887 142.67,43.8221 142.5,42.5 Z"/></g>
<g><path style="opacity:0.7" fill="#fefefe" d="M 157.5,35.5 C 165.359,33.7355 169.359,36.7355 169.5,44.5C 169.647,47.2534 168.98,49.7534 167.5,52C 164.183,52.4983 160.85,52.665 157.5,52.5C 157.5,46.8333 157.5,41.1667 157.5,35.5 Z M 160.5,38.5 C 164.824,38.1577 166.824,40.1577 166.5,44.5C 166.824,48.8423 164.824,50.8423 160.5,50.5C 160.5,46.5 160.5,42.5 160.5,38.5 Z"/></g>
<g><path style="opacity:0.683" fill="#fefefe" d="M 175.5,35.5 C 180.181,34.4564 183.348,36.1231 185,40.5C 185.701,43.9283 185.368,47.2617 184,50.5C 179.845,54.7045 176.178,54.3712 173,49.5C 171.806,44.3686 172.639,39.7019 175.5,35.5 Z M 176.5,38.5 C 182.14,39.2692 183.807,42.4358 181.5,48C 180.055,51.1366 178.222,51.3033 176,48.5C 175.253,45.0764 175.42,41.7431 176.5,38.5 Z"/></g>
<g><path style="opacity:0.716" fill="#fefefe" d="M 188.5,35.5 C 189.5,35.5 190.5,35.5 191.5,35.5C 191.5,40.5 191.5,45.5 191.5,50.5C 193.924,50.1924 196.257,50.5258 198.5,51.5C 195.232,52.487 191.898,52.8204 188.5,52.5C 188.5,46.8333 188.5,41.1667 188.5,35.5 Z"/></g>
<g><path style="opacity:0.64" fill="#fefefe" d="M 202.5,35.5 C 205.482,35.1044 208.149,35.7711 210.5,37.5C 209.555,39.517 208.055,39.8503 206,38.5C 204.674,38.7549 203.674,39.4216 203,40.5C 202.333,43.1667 202.333,45.8333 203,48.5C 204.523,50.6201 206.356,50.9535 208.5,49.5C 209.5,49.8333 210.167,50.5 210.5,51.5C 206.218,54.5519 202.718,53.8852 200,49.5C 198.806,44.3686 199.639,39.7019 202.5,35.5 Z"/></g>
<g><path style="opacity:0.736" fill="#fefefe" d="M 213.5,35.5 C 216.5,35.5 219.5,35.5 222.5,35.5C 222.5,36.5 222.5,37.5 222.5,38.5C 220.5,38.5 218.5,38.5 216.5,38.5C 216.5,39.8333 216.5,41.1667 216.5,42.5C 218.5,42.5 220.5,42.5 222.5,42.5C 222.5,43.5 222.5,44.5 222.5,45.5C 220.5,45.5 218.5,45.5 216.5,45.5C 216.5,47.1667 216.5,48.8333 216.5,50.5C 218.924,50.1924 221.257,50.5258 223.5,51.5C 220.232,52.487 216.898,52.8204 213.5,52.5C 213.5,46.8333 213.5,41.1667 213.5,35.5 Z"/></g>
<g><path style="opacity:0.435" fill="#eff6ef" d="M 59.5,37.5 C 60.9953,37.4148 61.9953,38.0815 62.5,39.5C 61.5,41.1667 60.1667,42.5 58.5,43.5C 57.2302,41.2432 57.5636,39.2432 59.5,37.5 Z"/></g>
<g><path style="opacity:0.118" fill="#f5f6e7" d="M 46.5,37.5 C 44.6052,43.1033 46.4385,44.77 52,42.5C 52.9947,43.0659 53.828,43.7326 54.5,44.5C 51.4816,44.6646 48.4816,44.498 45.5,44C 43.9797,41.4485 44.3131,39.2818 46.5,37.5 Z"/></g>
<g><path style="opacity:0.514" fill="#e8eee3" d="M 42.5,37.5 C 42.4045,40.6916 43.0712,43.6916 44.5,46.5C 43.5041,46.5858 42.6708,46.2524 42,45.5C 40.0407,42.5199 40.2073,39.8532 42.5,37.5 Z"/></g>
<g><path style="opacity:0.98" fill="#e1d8a2" d="M 46.5,37.5 C 44.3131,39.2818 43.9797,41.4485 45.5,44C 48.4816,44.498 51.4816,44.6646 54.5,44.5C 54.6495,45.552 54.4828,46.552 54,47.5C 50.9433,46.5495 47.7766,46.2161 44.5,46.5C 43.0712,43.6916 42.4045,40.6916 42.5,37.5C 44.1288,36.3747 45.6288,35.0414 47,33.5C 47.195,34.8193 47.0283,36.1526 46.5,37.5 Z"/></g>
<g><path style="opacity:0.961" fill="#f2f3e3" d="M 54.5,44.5 C 56.0079,47.0799 55.3413,49.0799 52.5,50.5C 51.6143,49.675 51.281,48.675 51.5,47.5C 48.9407,47.8016 46.6074,47.4682 44.5,46.5C 47.7766,46.2161 50.9433,46.5495 54,47.5C 54.4828,46.552 54.6495,45.552 54.5,44.5 Z"/></g>
<g><path style="opacity:1" fill="#e5ce7f" d="M 82.5,54.5 C 82.5,54.8333 82.5,55.1667 82.5,55.5C 81.7222,56.1556 81.0556,56.9889 80.5,58C 80.8333,58.5 81.1667,59 81.5,59.5C 82.735,58.6602 83.735,57.6602 84.5,56.5C 85.7199,58.0496 85.7199,59.7163 84.5,61.5C 83.0695,61.4208 81.7362,61.7542 80.5,62.5C 79.7492,61.624 79.2492,60.624 79,59.5C 77.3484,58.6006 75.8484,57.6006 74.5,56.5C 77.1123,55.6295 79.779,54.9628 82.5,54.5 Z"/></g>
<g><path style="opacity:1" fill="#f0e6b6" d="M 82.5,55.5 C 83.4916,55.3284 84.1583,55.6618 84.5,56.5C 83.735,57.6602 82.735,58.6602 81.5,59.5C 81.1667,59 80.8333,58.5 80.5,58C 81.0556,56.9889 81.7222,56.1556 82.5,55.5 Z"/></g>
<g><path style="opacity:1" fill="#e5d494" d="M 58.5,55.5 C 58.3862,57.7179 57.7196,59.7179 56.5,61.5C 56.1667,61.5 55.8333,61.5 55.5,61.5C 53.5648,60.8505 51.5648,60.5172 49.5,60.5C 48.1667,60.5 46.8333,60.5 45.5,60.5C 44.9569,60.44 44.6236,60.1067 44.5,59.5C 48.6129,56.5374 53.2796,55.2041 58.5,55.5 Z"/></g>
<g><path style="opacity:0.527" fill="#fefefe" d="M 179.5,59.5 C 180.5,59.5 181.5,59.5 182.5,59.5C 182.5,60.5 182.5,61.5 182.5,62.5C 186.5,62.8333 186.5,63.1667 182.5,63.5C 182.336,66.1873 182.503,68.854 183,71.5C 183.853,69.8753 184.853,69.5419 186,70.5C 187.287,67.8554 189.453,66.8554 192.5,67.5C 192.5,66.1667 192.5,64.8333 192.5,63.5C 191.5,63.5 190.5,63.5 189.5,63.5C 189.719,64.675 189.386,65.675 188.5,66.5C 187.216,63.7369 188.216,62.0703 191.5,61.5C 192.672,61.9186 193.672,62.5853 194.5,63.5C 194.826,66.6585 195.826,69.4918 197.5,72C 196.975,72.6924 196.308,73.1924 195.5,73.5C 193.689,72.2643 191.856,72.2643 190,73.5C 188.715,73.0496 187.548,72.3829 186.5,71.5C 185.131,73.124 183.464,73.624 181.5,73C 179.371,68.5918 178.704,64.0918 179.5,59.5 Z M 189.5,68.5 C 192.957,68.6672 193.29,69.6672 190.5,71.5C 189.614,70.675 189.281,69.675 189.5,68.5 Z"/></g>
<g><path style="opacity:1" fill="#e2c87b" d="M 58.5,55.5 C 59.5,55.5 60.5,55.5 61.5,55.5C 61.2627,56.791 61.596,57.791 62.5,58.5C 58.5063,59.3733 58.5063,60.54 62.5,62C 60.9669,63.8081 59.3003,64.3081 57.5,63.5C 57.1667,62.8333 56.8333,62.1667 56.5,61.5C 57.7196,59.7179 58.3862,57.7179 58.5,55.5 Z"/></g>
<g><path style="opacity:1" fill="#eadda2" d="M 74.5,56.5 C 75.8484,57.6006 77.3484,58.6006 79,59.5C 79.2492,60.624 79.7492,61.624 80.5,62.5C 81.7362,61.7542 83.0695,61.4208 84.5,61.5C 84.5,62.1667 84.5,62.8333 84.5,63.5C 84.1667,63.5 83.8333,63.5 83.5,63.5C 80.786,63.75 78.1194,63.9167 75.5,64C 76.1667,63.6667 76.8333,63.3333 77.5,63C 72.8333,62.3333 68.1667,62.3333 63.5,63C 61.6089,64.4424 59.6089,65.6091 57.5,66.5C 57.5,65.5 57.5,64.5 57.5,63.5C 59.3003,64.3081 60.9669,63.8081 62.5,62C 58.5063,60.54 58.5063,59.3733 62.5,58.5C 63.1174,58.6107 63.6174,58.944 64,59.5C 67.5158,58.5633 71.0158,57.5633 74.5,56.5 Z"/></g>
<g><path style="opacity:1" fill="#e5ce7a" d="M 70.5,59.5 C 72.8568,59.3367 75.1902,59.5034 77.5,60C 74.3665,61.5697 71.0332,61.9031 67.5,61C 68.7375,60.7679 69.7375,60.2679 70.5,59.5 Z"/></g>
<g><path style="opacity:1" fill="#8d6954" d="M 49.5,60.5 C 51.5648,60.5172 53.5648,60.8505 55.5,61.5C 55.5594,63.7645 54.7261,64.0978 53,62.5C 51.7387,62.7591 50.7387,63.4258 50,64.5C 49.7216,63.5842 49.2216,62.9175 48.5,62.5C 48.8333,61.8333 49.1667,61.1667 49.5,60.5 Z"/></g>
<g><path style="opacity:0.601" fill="#fefefe" d="M 152.5,61.5 C 158.178,64.3912 158.845,68.2245 154.5,73C 153.216,73.6838 152.049,73.5171 151,72.5C 150.46,74.1346 150.96,75.4679 152.5,76.5C 150.5,77.8333 148.5,77.8333 146.5,76.5C 147.694,74.3766 148.36,72.0432 148.5,69.5C 148.41,67.0363 147.743,64.8697 146.5,63C 148.708,62.8091 150.708,62.3091 152.5,61.5 Z M 151.5,63.5 C 153.89,63.6848 154.89,65.0182 154.5,67.5C 153.167,72.8333 151.833,72.8333 150.5,67.5C 150.623,66.0755 150.957,64.7421 151.5,63.5 Z"/></g>
<g><path style="opacity:0.534" fill="#fefefe" d="M 169.5,71.5 C 169.189,72.4778 168.522,73.1445 167.5,73.5C 165.207,72.7643 162.874,72.5976 160.5,73C 157.457,68.5112 158.791,66.6779 164.5,67.5C 164.5,66.1667 164.5,64.8333 164.5,63.5C 163.5,63.5 162.5,63.5 161.5,63.5C 161.719,64.675 161.386,65.675 160.5,66.5C 159.216,63.7369 160.216,62.0703 163.5,61.5C 164.167,61.8333 164.833,62.1667 165.5,62.5C 166.637,65.7531 167.971,68.7531 169.5,71.5 Z M 161.5,68.5 C 164.957,68.6672 165.29,69.6672 162.5,71.5C 161.614,70.675 161.281,69.675 161.5,68.5 Z"/></g>
<g><path style="opacity:0.502" fill="#fefefe" d="M 169.5,71.5 C 169.369,70.6236 169.702,69.9569 170.5,69.5C 171.968,71.3329 173.635,71.6662 175.5,70.5C 173.821,69.218 171.987,68.218 170,67.5C 168.835,64.1861 170.002,62.1861 173.5,61.5C 177.554,62.4063 178.22,64.2397 175.5,67C 178.264,69.7857 177.764,71.9523 174,73.5C 172.415,72.9561 170.915,72.2894 169.5,71.5 Z M 172.5,63.5 C 174.465,63.9483 174.798,64.9483 173.5,66.5C 171.481,65.8671 171.147,64.8671 172.5,63.5 Z"/></g>
<g><path style="opacity:0.239" fill="#ebf0e8" d="M 82.5,54.5 C 79.779,54.9628 77.1123,55.6295 74.5,56.5C 71.0158,57.5633 67.5158,58.5633 64,59.5C 63.6174,58.944 63.1174,58.6107 62.5,58.5C 61.596,57.791 61.2627,56.791 61.5,55.5C 60.5,55.5 59.5,55.5 58.5,55.5C 53.2796,55.2041 48.6129,56.5374 44.5,59.5C 44.6236,60.1067 44.9569,60.44 45.5,60.5C 45.9175,61.2216 46.5842,61.7216 47.5,62C 47.2716,62.3988 46.9382,62.5654 46.5,62.5C 43.1012,63.0164 39.7679,63.8497 36.5,65C 34.5743,65.4224 33.5743,66.5891 33.5,68.5C 34.404,69.209 34.7373,70.209 34.5,71.5C 31.7212,71.2786 29.0545,71.612 26.5,72.5C 25.9569,72.44 25.6236,72.1067 25.5,71.5C 27.0453,70.5481 28.712,70.2148 30.5,70.5C 30.3398,68.8008 30.5065,67.1341 31,65.5C 33.8083,63.1789 36.975,61.5122 40.5,60.5C 41.624,59.086 42.624,57.586 43.5,56C 49.0875,55.3612 54.7542,54.1945 60.5,52.5C 63.6162,46.4957 68.2829,44.9957 74.5,48C 75.4061,49.6995 75.7394,51.5328 75.5,53.5C 78.0593,53.1984 80.3926,53.5318 82.5,54.5 Z"/></g>
<g><path style="opacity:1" fill="#ac8e7f" d="M 67.5,48.5 C 69.7753,49.8373 72.1086,51.1707 74.5,52.5C 74.5,53.8333 73.8333,54.5 72.5,54.5C 70.9995,52.6342 68.9995,51.3008 66.5,50.5C 66.3284,49.5084 66.6618,48.8417 67.5,48.5 Z"/></g>
<g><path style="opacity:1" fill="#8b5e48" d="M 66.5,50.5 C 68.9995,51.3008 70.9995,52.6342 72.5,54.5C 69.5943,55.7512 66.5943,56.2512 63.5,56C 62.6198,54.6439 62.2865,53.1439 62.5,51.5C 63.9587,51.5674 65.2921,51.2341 66.5,50.5 Z"/></g>
<g><path style="opacity:1" fill="#86654d" d="M 67.5,48.5 C 69.5273,48.3379 71.5273,48.5045 73.5,49C 74.3366,50.0113 74.67,51.1779 74.5,52.5C 72.1086,51.1707 69.7753,49.8373 67.5,48.5 Z"/></g>
<g><path style="opacity:0.327" fill="#f2f6ed" d="M 82.5,55.5 C 82.5,55.1667 82.5,54.8333 82.5,54.5C 83.552,54.3505 84.552,54.5172 85.5,55C 87.9664,58.3836 90.633,61.5502 93.5,64.5C 95.2914,65.1698 96.9581,65.8365 98.5,66.5C 95.5,66.5 92.5,66.5 89.5,66.5C 88.5,66.1667 87.8333,65.5 87.5,64.5C 86.209,64.7373 85.209,64.404 84.5,63.5C 84.5,62.8333 84.5,62.1667 84.5,61.5C 85.7199,59.7163 85.7199,58.0496 84.5,56.5C 84.1583,55.6618 83.4916,55.3284 82.5,55.5 Z M 87.5,64.5 C 84.9548,63.5492 84.9548,62.5492 87.5,61.5C 92.3278,64.5094 92.3278,65.5094 87.5,64.5 Z"/></g>
<g><path style="opacity:1" fill="#bba192" d="M 55.5,61.5 C 55.8333,61.5 56.1667,61.5 56.5,61.5C 56.8333,62.1667 57.1667,62.8333 57.5,63.5C 55.9318,65.9312 54.4318,65.9312 53,63.5C 50.966,67.1722 49.466,67.1722 48.5,63.5C 48.5,63.1667 48.5,62.8333 48.5,62.5C 49.2216,62.9175 49.7216,63.5842 50,64.5C 50.7387,63.4258 51.7387,62.7591 53,62.5C 54.7261,64.0978 55.5594,63.7645 55.5,61.5 Z"/></g>
<g><path style="opacity:1" fill="#e8cd79" d="M 83.5,63.5 C 82.2644,65.8275 80.2644,66.9942 77.5,67C 79.9113,68.5829 82.578,69.5829 85.5,70C 76.6567,70.8236 67.9901,70.6569 59.5,69.5C 61.0269,69.573 62.0269,68.9063 62.5,67.5C 53.8352,70.302 44.8352,71.302 35.5,70.5C 35.33,69.1779 35.6634,68.0113 36.5,67C 39.6812,66.4029 42.6812,66.9029 45.5,68.5C 49.1817,68.6653 52.8484,68.4986 56.5,68C 57.056,67.6174 57.3893,67.1174 57.5,66.5C 59.6089,65.6091 61.6089,64.4424 63.5,63C 68.1667,62.3333 72.8333,62.3333 77.5,63C 76.8333,63.3333 76.1667,63.6667 75.5,64C 78.1194,63.9167 80.786,63.75 83.5,63.5 Z"/></g>
<g><path style="opacity:0.947" fill="#946e5a" d="M 48.5,63.5 C 49.466,67.1722 50.966,67.1722 53,63.5C 54.4318,65.9312 55.9318,65.9312 57.5,63.5C 57.5,64.5 57.5,65.5 57.5,66.5C 54.5314,67.3287 51.5314,67.4954 48.5,67C 47.2089,65.7083 47.2089,64.5417 48.5,63.5 Z"/></g>
<g><path style="opacity:1" fill="#efe2a5" d="M 62.5,67.5 C 62.6107,66.8826 62.944,66.3826 63.5,66C 67.5,65.3333 71.5,65.3333 75.5,66C 74.737,66.9435 73.737,67.4435 72.5,67.5C 69.1667,66.3 65.8334,66.3 62.5,67.5 Z"/></g>
<g><path style="opacity:0.827" fill="#e7e4ce" d="M 45.5,60.5 C 46.8333,60.5 48.1667,60.5 49.5,60.5C 49.1667,61.1667 48.8333,61.8333 48.5,62.5C 48.5,62.8333 48.5,63.1667 48.5,63.5C 47.2089,64.5417 47.2089,65.7083 48.5,67C 51.5314,67.4954 54.5314,67.3287 57.5,66.5C 57.3893,67.1174 57.056,67.6174 56.5,68C 52.8484,68.4986 49.1817,68.6653 45.5,68.5C 45.5172,66.4352 45.8505,64.4352 46.5,62.5C 46.9382,62.5654 47.2716,62.3988 47.5,62C 46.5842,61.7216 45.9175,61.2216 45.5,60.5 Z"/></g>
<g><path style="opacity:1" fill="#e8d285" d="M 83.5,63.5 C 83.8333,63.5 84.1667,63.5 84.5,63.5C 85.209,64.404 86.209,64.7373 87.5,64.5C 87.8333,65.5 88.5,66.1667 89.5,66.5C 92.0227,67.2537 94.6894,67.9204 97.5,68.5C 98.7112,69.2739 98.7112,70.1072 97.5,71C 92.8452,71.4992 88.1785,71.6658 83.5,71.5C 74.8333,71.5 66.1667,71.5 57.5,71.5C 57.8333,70.5 58.5,69.8333 59.5,69.5C 67.9901,70.6569 76.6567,70.8236 85.5,70C 82.578,69.5829 79.9113,68.5829 77.5,67C 80.2644,66.9942 82.2644,65.8275 83.5,63.5 Z"/></g>
<g><path style="opacity:1" fill="#fefffe" d="M 109.5,68.5 C 119.325,67.3417 129.325,67.1751 139.5,68C 129.506,68.4998 119.506,68.6665 109.5,68.5 Z"/></g>
<g><path style="opacity:1" fill="#fefffe" d="M 234.5,67.5 C 234.5,67.8333 234.5,68.1667 234.5,68.5C 194.5,68.1667 194.5,67.8333 234.5,67.5 Z"/></g>
<g><path style="opacity:0.996" fill="#e8d997" d="M 46.5,62.5 C 45.8505,64.4352 45.5172,66.4352 45.5,68.5C 42.6812,66.9029 39.6812,66.4029 36.5,67C 35.6634,68.0113 35.33,69.1779 35.5,70.5C 44.8352,71.302 53.8352,70.302 62.5,67.5C 62.0269,68.9063 61.0269,69.573 59.5,69.5C 58.5,69.8333 57.8333,70.5 57.5,71.5C 49.8333,71.5 42.1667,71.5 34.5,71.5C 34.7373,70.209 34.404,69.209 33.5,68.5C 33.5743,66.5891 34.5743,65.4224 36.5,65C 39.7679,63.8497 43.1012,63.0164 46.5,62.5 Z"/></g>
<g><path style="opacity:1" fill="#eee5ad" d="M 89.5,66.5 C 92.5,66.5 95.5,66.5 98.5,66.5C 99.8333,66.5 100.5,67.1667 100.5,68.5C 100.567,69.9587 100.234,71.2921 99.5,72.5C 94.5,72.5 89.5,72.5 84.5,72.5C 83.8333,72.5 83.5,72.1667 83.5,71.5C 88.1785,71.6658 92.8452,71.4992 97.5,71C 98.7112,70.1072 98.7112,69.2739 97.5,68.5C 94.6894,67.9204 92.0227,67.2537 89.5,66.5 Z"/></g>
<g><path style="opacity:0.517" fill="#eff6ed" d="M 100.5,68.5 C 104.415,72.2752 103.748,75.4419 98.5,78C 76.8724,79.2598 55.2058,79.2598 33.5,78C 29.9608,77.5783 27.6275,75.7449 26.5,72.5C 29.0545,71.612 31.7212,71.2786 34.5,71.5C 42.1667,71.5 49.8333,71.5 57.5,71.5C 66.1667,71.5 74.8333,71.5 83.5,71.5C 83.5,72.1667 83.8333,72.5 84.5,72.5C 86.1667,73.1667 87.8333,73.8333 89.5,74.5C 93.3206,76.0026 96.6539,75.336 99.5,72.5C 100.234,71.2921 100.567,69.9587 100.5,68.5 Z M 89.5,74.5 C 90.9488,76.1644 92.9488,76.9977 95.5,77C 83.093,76.6079 70.4264,76.7745 57.5,77.5C 49.5283,76.7284 41.5283,76.2284 33.5,76C 31.6675,75.2515 30.0009,74.2515 28.5,73C 46.5,72.3333 64.5,72.3333 82.5,73C 84.5938,74.3515 86.9272,74.8515 89.5,74.5 Z"/></g>
<g><path style="opacity:1" fill="#e1cf83" d="M 84.5,72.5 C 89.5,72.5 94.5,72.5 99.5,72.5C 96.6539,75.336 93.3206,76.0026 89.5,74.5C 87.8333,73.8333 86.1667,73.1667 84.5,72.5 Z"/></g>
</svg>
