<?xml version="1.0" encoding="utf-8"?>
<!-- Generator: Adobe Illustrator 17.0.0, SVG Export Plug-In . SVG Version: 6.00 Build 0)  -->
<!DOCTYPE svg PUBLIC "-//W3C//DTD SVG 1.1//EN" "http://www.w3.org/Graphics/SVG/1.1/DTD/svg11.dtd">
<svg version="1.1" id="Camada_1" xmlns="http://www.w3.org/2000/svg" xmlns:xlink="http://www.w3.org/1999/xlink" x="0px" y="0px"
	 width="25px" height="40px" viewBox="0 0 25 40" enable-background="new 0 0 25 40" xml:space="preserve">
<rect fill="#EFECEC" width="25" height="40"/>
<g>
	<path fill="#989898" d="M16.538,17.527H8.544c-0.165,0-0.247,0-0.412,0.083C8.05,17.692,8.05,17.856,8.05,17.939
		c0,0.166,0,0.248,0.001,0.413l4.037,4.039c0.082,0.082,0.247,0.082,0.33,0.082c0.164,0,0.246,0,0.411-0.166l4.039-4.038
		c0-0.083,0.082-0.247,0.082-0.33c0-0.082,0-0.246-0.082-0.329C16.785,17.527,16.621,17.527,16.538,17.527z"/>
</g>
</svg>
